<svg width="1440" height="1019" viewBox="0 0 1440 1019" fill="none" xmlns="http://www.w3.org/2000/svg">
<g clip-path="url(#clip0_2_29)">
<rect width="1441" height="1019" fill="black"/>
<path d="M2160.26 -56.4074C1798.46 -1.67852 1231.23 109.079 1519.8 458.713C1887.03 903.646 2784.42 787.086 2385.86 1130.5" stroke="white" stroke-width="8.2894"/>
<path d="M2032.69 -77.6108C1670.9 -22.8819 1103.67 87.8756 1392.24 437.509C1759.46 882.442 2656.85 765.882 2258.29 1109.3" stroke="white" stroke-width="8.2894"/>
<path d="M1905.19 -99.1702C1543.39 -44.4413 976.162 66.3162 1264.73 415.95C1631.96 860.883 2529.35 744.323 2130.79 1087.74" stroke="white" stroke-width="8.2894"/>
<path d="M1777.52 -119.766C1415.73 -65.0369 848.498 45.7207 1137.07 395.354C1504.3 840.288 2401.68 723.728 2003.12 1067.14" stroke="white" stroke-width="8.2894"/>
<path d="M1649.56 -138.431C1287.77 -83.7021 720.537 27.0555 1009.11 376.689C1376.33 821.622 2273.72 705.062 1875.16 1048.48" stroke="white" stroke-width="8.2894"/>
<path d="M1521.25 -154.477C1159.45 -99.7479 592.222 11.0097 880.793 360.643C1248.02 805.577 2145.41 689.017 1746.85 1032.43" stroke="white" stroke-width="8.2894"/>
<path d="M1392.58 -167.437C1030.79 -112.708 463.558 -1.9506 752.129 347.683C1119.36 792.616 2016.74 676.056 1618.18 1019.47" stroke="white" stroke-width="8.2894"/>
<path d="M1262.83 -177.137C901.032 -122.408 333.803 -11.6502 622.374 337.983C989.6 782.917 1886.99 666.357 1488.43 1009.77" stroke="white" stroke-width="8.2894"/>
<path d="M1133.73 -184.603C771.933 -129.874 204.704 -19.1161 493.275 330.517C860.501 775.451 1757.89 658.891 1359.33 1002.3" stroke="white" stroke-width="8.2894"/>
<path d="M1004.54 -190.203C642.74 -135.474 75.5111 -24.7168 364.082 324.917C731.309 769.85 1628.7 653.29 1230.14 996.703" stroke="white" stroke-width="8.2894"/>
<path d="M875.267 -193.683C513.471 -138.954 -53.7574 -28.1961 234.813 321.437C602.04 766.371 1499.43 649.811 1100.87 993.224" stroke="white" stroke-width="8.2894"/>
<path d="M745.957 -194.72C384.161 -139.991 -183.068 -29.2336 105.503 320.4C472.73 765.333 1370.12 648.773 971.557 992.187" stroke="white" stroke-width="8.2894"/>
<path d="M616.655 -192.906C254.859 -138.177 -312.37 -27.4194 -23.7987 322.214C343.428 767.147 1240.81 650.587 842.255 994.001" stroke="white" stroke-width="8.2894"/>
<path d="M487.445 -187.701C125.649 -132.972 -441.58 -22.2149 -153.009 327.419C214.218 772.352 1111.6 655.792 713.045 999.205" stroke="white" stroke-width="8.2894"/>
<path d="M358.466 -178.378C-3.32962 -123.649 -570.558 -12.8916 -281.988 336.742C85.2391 781.675 982.626 665.115 584.066 1008.53" stroke="white" stroke-width="8.2894"/>
<path d="M229.961 -163.913C-131.835 -109.184 -699.063 1.5732 -410.492 351.207C-43.2657 796.14 854.121 679.58 455.561 1022.99" stroke="white" stroke-width="8.2894"/>
<path d="M102.369 -142.831C-259.427 -88.1019 -826.655 22.6557 -538.085 372.289C-170.858 817.223 726.529 700.663 327.969 1044.08" stroke="white" stroke-width="8.2894"/>
<path d="M-23.4284 -113.024C-385.224 -58.2951 -952.453 52.4625 -663.882 402.096C-296.655 847.029 600.732 730.469 202.172 1073.88" stroke="white" stroke-width="8.2894"/>
<path d="M-145.54 -73.2654C-507.336 -18.5365 -1074.56 92.2211 -785.994 441.855C-418.767 886.788 478.619 770.228 80.0596 1113.64" stroke="white" stroke-width="8.2894"/>
</g>
<defs>
<clipPath id="clip0_2_29">
<rect width="1441" height="1019" fill="white"/>
</clipPath>
</defs>
</svg>
